<svg width="30" height="28" viewBox="0 0 30 28" fill="none" xmlns="http://www.w3.org/2000/svg">
<path d="M25.6066 18.1005C23.9729 16.5757 22.0283 15.4469 19.9066 14.7635C22.179 13.3028 23.6719 10.8581 23.6719 8.09375C23.6719 3.63087 19.7817 0 15 0C10.2183 0 6.32812 3.63087 6.32812 8.09375C6.32812 10.8581 7.82103 13.3028 10.0935 14.7635C7.9718 15.4469 6.02719 16.5757 4.39342 18.1005C1.56029 20.7448 0 24.2605 0 28H2.34375C2.34375 21.4866 8.02131 16.1875 15 16.1875C21.9787 16.1875 27.6562 21.4866 27.6562 28H30C30 24.2605 28.4397 20.7448 25.6066 18.1005ZM15 14C11.5107 14 8.67188 11.3505 8.67188 8.09375C8.67188 4.837 11.5107 2.1875 15 2.1875C18.4893 2.1875 21.3281 4.837 21.3281 8.09375C21.3281 11.3505 18.4893 14 15 14Z" fill="black"/>
</svg>
